<?xml version="1.0" encoding="UTF-8" standalone="no"?>
<svg
   viewBox="0 0 627.7 719.96002"
   version="1.1"
   id="svg81"
   sodipodi:docname="PROVIDER_HEX_out.svg"
   width="627.70001"
   height="719.96002"
   inkscape:version="1.1.2 (b8e25be833, 2022-02-05)"
   xmlns:inkscape="http://www.inkscape.org/namespaces/inkscape"
   xmlns:sodipodi="http://sodipodi.sourceforge.net/DTD/sodipodi-0.dtd"
   xmlns="http://www.w3.org/2000/svg"
   xmlns:svg="http://www.w3.org/2000/svg">
  <sodipodi:namedview
     id="namedview83"
     pagecolor="#ffffff"
     bordercolor="#666666"
     borderopacity="1.0"
     inkscape:pageshadow="2"
     inkscape:pageopacity="0.0"
     inkscape:pagecheckerboard="0"
     showgrid="false"
     inkscape:zoom="0.7706315"
     inkscape:cx="-55.149576"
     inkscape:cy="304.94471"
     inkscape:window-width="1920"
     inkscape:window-height="1009"
     inkscape:window-x="-8"
     inkscape:window-y="-8"
     inkscape:window-maximized="1"
     inkscape:current-layer="svg81" />
  <defs
     id="defs4">
    <style
       id="style2">.h{fill:#440d0d;}.i{opacity:.9;}.j{isolation:isolate;}.k{fill:#ba2530;stroke:#ba2530;}.k,.l,.m{stroke-miterlimit:10;stroke-width:.5px;}.l,.m{fill:#eae3b5;stroke:#eae3b5;}.n,.m{mix-blend-mode:luminosity;}.o{fill:#f42f2f;}</style>
  </defs>
  <g
     class="j"
     id="g79"
     transform="translate(-740.33,-108.43)">
    <g
       id="a"
       class="i">
      <path
         class="o"
         d="m 740.33,296.26 v 344.3 c 0,5.6 2.99,10.78 7.84,13.58 l 298.17,172.15 c 4.85,2.8 10.83,2.8 15.68,0 l 298.17,-172.15 c 4.85,-2.8 7.84,-7.98 7.84,-13.58 v -344.3 c 0,-5.6 -2.99,-10.78 -7.84,-13.58 L 1062.02,110.53 c -4.85,-2.8 -10.83,-2.8 -15.68,0 L 748.17,282.68 c -4.85,2.8 -7.84,7.98 -7.84,13.58 z"
         id="path6" />
    </g>
    <g
       id="b">
      <g
         class="n"
         id="g25">
        <path
           class="l"
           d="m 967.23,267.37 c -0.62,0.09 -1.26,0.13 -1.9,0.13 -4.75,0 -8.76,-2.44 -8.76,-5.33 0,-2.89 4.01,-5.33 8.76,-5.33 0.64,0 1.28,0.04 1.9,0.13 z m 9.9,17.65 v -58.65 h 29.24 c 16.17,0 29.33,13.16 29.33,29.32 0,16.16 -13.15,29.33 -29.33,29.33 z"
           id="path9" />
        <path
           class="l"
           d="m 1087.87,232.85 h 39.69 c 16.17,0 29.32,13.15 29.32,29.33 0,13.55 -9.24,24.98 -21.76,28.33 l -6.3,-11.91 c -0.26,-0.5 -0.78,-0.81 -1.34,-0.81 h -6.86 c -0.84,0 -1.52,0.68 -1.52,1.52 0,2.94 -2.39,5.33 -5.33,5.33 -0.99,0 -1.91,-0.27 -2.7,-0.74 l -2.81,-5.3 h -0.01 c -0.26,-0.48 -0.76,-0.81 -1.34,-0.81 h -6.85 c -0.84,0 -1.52,0.68 -1.52,1.52 0,3.39 1.12,6.62 3.12,9.24 l 1.55,2.95 h -15.34 z m 25.9,44.56 c 8.4,0 15.23,-6.83 15.23,-15.23 0,-8.4 -6.83,-15.23 -15.23,-15.23 -8.4,0 -15.23,6.83 -15.23,15.23 0,8.4 6.83,15.23 15.23,15.23 z"
           id="path11" />
        <path
           class="l"
           d="m 990.06,427.43 c 0,0.3 0.09,0.6 0.26,0.85 l 29.88,43.15 c -0.25,15.59 -13.01,28.2 -28.65,28.2 -15.64,0 -28.66,-12.85 -28.66,-28.66 0,-0.3 -0.09,-0.6 -0.26,-0.85 l -29.88,-43.15 c 0.25,-15.59 13,-28.2 28.65,-28.2 15.65,0 28.66,12.85 28.66,28.66 z"
           id="path13" />
        <path
           class="l"
           d="m 1050.8,439.51 -3.6,-7.2 15.13,-21.19 3.6,7.2 z m 17.85,-22.57 -3.62,-7.24 h 87.61 l -3.62,7.24 h -80.38 z m 6.14,70.56 -3.6,-7.2 15.14,-21.19 3.6,7.2 z m 53.86,-29.81 -3.62,7.24 h -32.39 l -3.62,-7.24 z"
           id="path15" />
        <path
           class="l"
           d="m 1185.1,403.23 c -2.53,0 -4.97,-0.8 -6.98,-2.21 0.61,0.08 1.22,0.11 1.84,0.11 8.4,0 15.23,-6.83 15.23,-15.23 0,-0.62 -0.04,-1.23 -0.11,-1.84 1.41,2.02 2.21,4.45 2.21,6.98 0,6.72 -5.47,12.19 -12.19,12.19 z"
           id="path17" />
        <path
           class="l"
           d="m 900.2,592.36 c 1.96,-6.34 4.65,-10.28 7.03,-10.28 1.27,0 2.44,1.1 3.32,2.26 -4.06,7 -6.56,20.23 -6.56,34.97 0,14.74 2.5,27.97 6.56,34.97 -0.88,1.16 -2.05,2.26 -3.32,2.26 -2.37,0 -5.06,-3.94 -7.03,-10.28 -2.22,-7.18 -3.44,-16.75 -3.44,-26.96 0,-10.21 1.22,-19.78 3.44,-26.96 v 0 z m 77.67,26.95 c 0,-36.42 -27.78,-66.47 -63.26,-70.09 3.44,3.31 6.57,8.97 9.16,16.71 25.91,11.62 43.43,37.67 43.43,67.09 0,12.38 -3.02,24.28 -8.81,34.94 12.49,-13.02 19.48,-30.24 19.48,-48.65 z"
           id="path19" />
        <path
           class="l"
           d="m 1108.67,689.77 h -82.64 V 572.85 h 62.08 v 14.09 h -46.46 c -0.84,0 -1.52,0.68 -1.52,1.52 v 30.85 c 0,0.84 0.68,1.52 1.52,1.52 h 53.32 v 14.09 h -53.32 c -0.84,0 -1.52,0.68 -1.52,1.52 v 37.7 c 0,0.84 0.68,1.52 1.52,1.52 h 67.03 v 14.09 z m -65.5,-71.98 v -4.13 c 0.26,0.2 0.59,0.32 0.93,0.32 h 43.99 l 4.35,3.81 h -49.26 z m 0,50.71 c 0.27,0.2 0.59,0.32 0.93,0.32 h 57.7 l 4.35,3.81 h -62.97 v -4.13 z"
           id="path21" />
        <path
           class="l"
           d="m 1139.8,562.94 -19.73,-14.09 h 53.51 c 3.41,0 6.65,1.08 9.4,3.14 l 15.35,10.97 c -0.25,-0.01 -0.5,-0.02 -0.76,-0.02 h -57.78 z m -1.37,37.04 v 0 c 0.25,0.18 0.55,0.28 0.88,0.28 h 8.47 l 17.06,10.66 h -21.67 l -22.54,-14.09 h 13.39 l 4.4,3.15 z m 2.41,-2.76 v -3.81 h 56.9 c 6.42,0 11.65,-5.22 11.65,-11.65 0,-0.02 0,-0.05 0,-0.07 0,-0.02 0,-0.05 0,-0.07 0,-0.07 0,-0.14 0,-0.21 0,-0.13 0,-0.26 -0.02,-0.38 -0.06,-1.14 -0.27,-2.26 -0.65,-3.36 -0.05,-0.14 -0.12,-0.27 -0.21,-0.39 -1.77,-4.34 -5.99,-7.48 -10.77,-7.48 h -56.9 v -3.81 h 56.74 c 8.61,0 15.62,7 15.62,15.62 0,8.62 -7.01,15.61 -15.62,15.61 h -56.75 z m 3.43,92.55 v -75.79 h 24.37 v 75.79 z m 20.57,-70.46 c 0,-0.84 -0.68,-1.52 -1.52,-1.52 h -13.71 c -0.84,0 -1.52,0.68 -1.52,1.52 v 65.13 c 0,0.84 0.68,1.52 1.52,1.52 h 13.71 c 0.84,0 1.52,-0.68 1.52,-1.52 z m 18.85,70.46 v -71.32 l 38.76,71.32 z"
           id="path23" />
      </g>
      <g
         id="c"
         class="n">
        <path
           class="l"
           d="m 957.42,615.96 c 0,-4.83 -3.93,-8.76 -8.76,-8.76 -4.83,0 -8.76,3.93 -8.76,8.76 0,4.83 3.93,8.76 8.76,8.76 4.83,0 8.76,-3.93 8.76,-8.76 z"
           id="path27" />
      </g>
      <g
         id="d">
        <polygon
           class="m"
           points="1126.67,280.9 1155.91,336.13 1152.5,336.13 1123.26,280.9 "
           id="polygon30" />
      </g>
      <g
         id="e">
        <polygon
           class="l"
           points="1105.64,280.9 1106.11,280.9 1135.34,336.13 1131.94,336.13 1102.7,280.9 "
           id="polygon33" />
      </g>
      <g
         id="f">
        <path
           class="k"
           d="m 1122.11,253.27 c 2.48,2.27 3.96,5.52 3.96,8.98 0,6.72 -5.47,12.19 -12.19,12.19 -3.46,0 -6.71,-1.48 -8.98,-3.96 0.7,0.1 1.41,0.15 2.13,0.15 8.4,0 15.23,-6.83 15.23,-15.23 0,-0.72 -0.05,-1.43 -0.15,-2.13 z"
           id="path36" />
      </g>
      <g
         id="g">
        <path
           class="k"
           d="m 1140.95,590.59 v -3.81 h 56.9 c 3.3,0 6.37,-1.4 8.54,-3.73 -0.53,4.24 -4.15,7.54 -8.54,7.54 z"
           id="path39" />
      </g>
      <g
         id="g58">
        <path
           class="k"
           d="m 970.49,280.48 v -51.72 c 0,-0.49 -0.24,-0.95 -0.64,-1.24 l -10.28,-7.35 c -0.46,-0.33 -1.07,-0.38 -1.58,-0.11 -0.51,0.26 -0.83,0.78 -0.83,1.35 v 34.79 c -2.13,1.51 -3.43,3.6 -3.43,5.95 v 6.72 c 0,0 -0.38,-0.26 -0.38,-0.26 v -57.95 l 20.95,14.96 v 57.57 l -3.81,-2.72 z m 3.81,6.46 v 57.49 c 0,2.89 -4.01,5.33 -8.76,5.33 -4.75,0 -8.91,-2.49 -8.91,-5.33 l 0.14,-76.6 c 2.15,1.68 5.26,2.71 8.77,2.71 0.64,0 1.28,-0.04 1.9,-0.11 v 10.83 c 0,0.49 0.24,0.95 0.64,1.24 z"
           id="path42" />
        <path
           class="k"
           d="m 1061.06,220.04 c -0.01,0.08 -0.02,0.16 -0.02,0.24 v 12.83 l -10.66,-9.33 v -13.09 l 10.69,9.35 z m -6.88,11.12 v 16.52 l -3.81,-3.33 v -16.52 z m 6.85,26.56 v 16.52 l -10.66,-9.33 v -16.52 z m -6.85,14.57 v 16.52 l -3.81,-3.33 v -16.52 z m -3.81,17.23 10.66,9.33 v 16.52 l -10.66,-9.33 z m 0,20.57 3.81,3.33 v 16.52 l -3.81,-3.33 z m 32.12,-80.29 h -5.66 l -23.94,-20.95 h 5.66 z m -25.27,20.54 v -16.52 l 10.66,9.33 v 16.52 z m 10.66,50.46 -10.66,-9.33 v -16.52 l 10.66,9.33 z m -10.66,15.28 10.66,9.33 v 16.52 l -10.66,-9.33 z m 6.85,-39.18 v -16.52 l 10.66,9.33 v 16.52 z m 0,-41.13 v -13.09 l 10.66,9.33 v 13.09 z m 0,82.26 v -16.52 l 10.66,9.33 v 16.52 z m 6.85,10.05 3.81,3.33 v 16.52 l -3.82,-3.35 c 0,-0.05 0.02,-0.1 0.02,-0.15 v -16.35 z m 0,-82.26 3.81,3.33 v 16.52 l -3.81,-3.33 z m 3.81,60.98 -3.81,-3.33 v -16.52 l 3.81,3.33 z m 10.28,-13.78 v 56.74 h -7.23 V 232.84 h 7.23 v 60.17 z m 28.23,-5.37 c 0.24,0.02 0.47,0.03 0.71,0.03 3.13,0 5.86,-1.73 7.3,-4.28 l 28.86,54.52 c -0.18,2.78 -2.49,4.99 -5.32,4.99 -2.83,0 -5.3,-2.36 -5.33,-5.28 0,-0.02 0,-0.03 0,-0.05 0,-0.31 -0.09,-0.6 -0.25,-0.84 l -25.98,-49.08 z m 31.56,62.11 c -6.2,0 -11.34,-4.66 -12.09,-10.66 h 3.85 c 0.72,3.89 4.14,6.85 8.24,6.85 4.1,0 7.52,-2.96 8.24,-6.85 h 3.85 c -0.75,6 -5.89,10.66 -12.09,10.66 z"
           id="path44" />
        <path
           class="k"
           d="m 961.62,378.68 c 26.39,0 47.94,21.07 48.73,47.26 h -17.13 c 0,-0.09 -0.01,-0.17 -0.02,-0.26 -0.91,-16.63 -14.72,-29.89 -31.58,-29.89 -16.86,0 -30.78,13.36 -31.6,30.08 l -17.14,0.06 c 0.79,-26.2 22.35,-47.26 48.73,-47.26 z m -30.93,50.24 28.08,40.56 h -16.48 l -28.08,-40.56 z m 92,40.56 -28.08,-40.56 h 16.48 l 28.08,40.56 z"
           id="path46" />
        <path
           class="k"
           d="m 1039.02,415.52 -7.03,-14.05 15.13,-21.19 7.03,14.05 z m 17.85,-22.57 -0.65,-1.3 -6.39,-12.79 h 118.46 l -7.05,14.09 z m 6.14,70.56 -3.6,-7.2 15.14,-21.19 3.6,7.2 z m 74.24,-22.57 h -56.38 l -3.62,-7.23 h 63.62 z m -38.59,42 8.57,14.29 -15.21,21.29 -8.57,-14.29 z m 17.99,-1.25 -7.59,12.65 -7.59,-12.65 h 15.19 z"
           id="path48" />
        <path
           class="k"
           d="m 1185.88,498.82 h 9.08 l -21.84,19.11 v -7.95 z m 0.95,-74.52 10.66,-9.33 v 80.81 h -10.66 z"
           id="path50" />
        <path
           class="k"
           d="m 907.44,689.76 c -10.02,0 -20.76,-28.31 -20.76,-70.46 0,-42.15 10.73,-70.46 20.76,-70.46 10.03,0 20.75,28.31 20.75,70.46 0,42.15 -10.73,70.46 -20.75,70.46 z m 0,-30.17 c 8.78,0 13.52,-20.75 13.52,-40.28 0,-19.53 -4.74,-40.28 -13.52,-40.28 -8.78,0 -13.52,20.75 -13.52,40.28 0,19.53 4.74,40.28 13.52,40.28 z"
           id="path52" />
        <path
           class="k"
           d="m 998.82,550.69 24.38,21.33 v 115.92 l -24.38,-21.33 z m 69.91,12.26 h -23.86 l -8.27,-7.24 h 32.13 z m -25.35,37.7 v -3.81 h 25.32 l 4.35,3.81 h -29.68 z m 32.21,10.28 h -30.71 l -1.5,-1.31 v -5.92 h 32.21 z m -32.21,44.56 v -3.81 h 39.03 l 4.35,3.81 h -43.39 z m 45.92,10.28 h -44.42 l -1.5,-1.31 v -5.93 h 45.92 z"
           id="path54" />
        <path
           class="k"
           d="m 1117.05,580.82 v -30.53 l 20.95,14.96 v 3.11 l -11.3,-8.07 c -0.46,-0.33 -1.08,-0.38 -1.58,-0.12 -0.51,0.26 -0.83,0.78 -0.83,1.35 v 20.57 c 0,0.49 0.24,0.95 0.64,1.24 l 13.07,9.34 v 3.11 z m 0,17.24 24.37,15.23 v 75.24 l -24.37,-15.23 z m 10.28,-16.75 v -3.11 l 10.66,7.62 v 3.11 z m 23.99,97.79 h 4.7 l 3.81,3.81 h -8.51 z m 19.86,-67.93 c 0,0 0,0 -0.01,0 l -14.71,-9.19 v -1.7 h 3.52 l 20.85,13.03 v 75.24 l -8.95,-5.59 v -70.49 c 0,-0.54 -0.28,-1.01 -0.71,-1.28 v 0 z m -13.01,65.77 v -56.11 h 3.81 v 59.92 z"
           id="path56" />
      </g>
      <g
         id="g76">
        <path
           class="h"
           d="m 1026.78,230.58 c 7.36,5.94 12.08,15.02 12.08,25.2 0,17.85 -14.52,32.37 -32.37,32.37 h -29.24 v 56.36 c 0,4.7 -5.19,8.38 -11.81,8.38 -6.62,0 -11.96,-3.76 -11.96,-8.38 l 0.13,-71.81 -2.77,-1.98 c -0.4,-0.29 -0.64,-0.75 -0.64,-1.24 v -61.7 c 0,-0.18 0.04,-0.36 0.1,-0.53 0.08,-0.77 0.72,-1.38 1.51,-1.38 h 30.76 c 6.05,0 11.96,1.69 17.08,4.88 0.07,0.04 27.05,19.74 27.12,19.81 v 0 z m -52.58,52.71 v -57.57 l -20.95,-14.96 v 57.95 l 0.37,0.26 v -6.72 c 0.01,-2.35 1.31,-4.45 3.44,-5.95 v -34.79 c 0,-0.57 0.32,-1.09 0.83,-1.35 0.51,-0.26 1.12,-0.22 1.58,0.12 l 10.28,7.34 c 0.4,0.29 0.64,0.75 0.64,1.24 v 51.72 l 3.81,2.72 z m -6.22,-0.7 c -0.4,-0.29 -0.64,-0.75 -0.64,-1.24 v -10.82 c -0.63,0.07 -1.26,0.11 -1.9,0.11 -3.51,0 -6.62,-1.04 -8.77,-2.71 l -0.14,76.6 c 0,2.84 4.16,5.33 8.91,5.33 4.75,0 8.76,-2.44 8.76,-5.33 v -57.49 l -6.22,-4.44 z m -0.64,-25.53 c -0.62,-0.09 -1.26,-0.13 -1.9,-0.13 -4.75,0 -8.76,2.44 -8.76,5.33 0,2.89 4.01,5.33 8.76,5.33 0.65,0 1.28,-0.04 1.9,-0.13 z m 39.15,28.05 c 16.17,0 29.32,-13.15 29.32,-29.32 0,-16.17 -13.15,-29.33 -29.32,-29.33 h -29.24 v 58.65 z"
           id="path60" />
        <path
           class="h"
           d="m 1159.73,336.82 c 0.16,0.24 0.25,0.53 0.25,0.83 0,0.03 0,0.06 0,0.1 -0.05,8.35 -6.87,15.14 -15.23,15.14 -6.26,0 -11.65,-3.8 -13.99,-9.21 0,0 0,0 0,0 l -25.81,-49.05 h -16.94 v 56.74 c 0,0.84 -0.68,1.52 -1.52,1.52 h -10.28 c -0.38,0 -0.71,-0.14 -0.98,-0.37 0,0 -0.02,0 -0.02,-0.01 l -27.42,-23.99 c -0.33,-0.29 -0.52,-0.71 -0.52,-1.14 V 207.41 c 0,-0.6 0.35,-1.14 0.89,-1.39 0.2,-0.09 0.42,-0.14 0.63,-0.14 h 51.41 c 7.75,0 15.24,2.79 21.12,7.85 0.04,0.03 0.09,0.06 0.13,0.1 0,0 28.85,25.24 28.92,25.32 5.99,5.88 9.71,14.06 9.71,23.09 0,14.72 -9.88,27.16 -23.35,31.08 l 23.03,43.49 z m -109.45,-10.14 3.81,3.33 v -16.52 l -3.81,-3.33 z m 0,-115.92 v 13.09 l 10.66,9.33 v -12.83 c 0,-0.08 0.01,-0.16 0.02,-0.24 l -10.69,-9.35 z m 0,17.14 v 16.52 l 3.81,3.33 v -16.52 z m 0,20.56 v 16.52 l 10.66,9.33 v -16.52 z m 0,20.57 v 16.52 l 3.81,3.33 v -16.52 z m 0,37.08 10.66,9.33 v -16.52 l -10.66,-9.33 z m 8.19,-97.18 h -5.66 l 23.94,20.95 h 5.66 z m 9.33,50.82 v -16.52 l -10.66,-9.33 v 16.52 z m 0,24.61 -10.66,-9.33 v 16.52 l 10.66,9.33 z m -10.66,48.32 10.66,9.33 v -16.52 l -10.66,-9.33 z m 17.52,-87.5 V 232.09 L 1064,222.76 v 13.09 z m 0,41.13 V 269.79 L 1064,260.46 v 16.52 z m 0,41.13 V 310.92 L 1064,301.59 v 16.52 z m -3.81,17.07 c 0,0.05 -0.01,0.1 -0.01,0.15 l 3.82,3.35 v -16.52 l -3.81,-3.33 z m 0,-82.1 3.81,3.33 v -16.52 l -3.81,-3.33 z m 3.81,27.95 -3.81,-3.33 v 16.52 l 3.81,3.33 z m 10.28,-57.44 h -7.23 v 116.92 h 7.23 z m 3.05,58.65 h 15.34 l -1.55,-2.95 c -2,-2.62 -3.12,-5.85 -3.12,-9.24 0,-0.84 0.68,-1.52 1.52,-1.52 h 6.85 c 0.58,0 1.08,0.33 1.34,0.8 h 0.01 c 0,0 2.81,5.31 2.81,5.31 0.79,0.47 1.72,0.74 2.7,0.74 2.94,0 5.33,-2.39 5.33,-5.33 0,-0.84 0.68,-1.52 1.52,-1.52 h 6.86 c 0.56,0 1.08,0.31 1.34,0.81 l 6.3,11.91 c 12.51,-3.35 21.76,-14.78 21.76,-28.33 0,-16.17 -13.15,-29.32 -29.32,-29.32 h -39.69 v 58.65 z m 10.66,-29.32 c 0,-8.4 6.83,-15.23 15.23,-15.23 8.4,0 15.23,6.83 15.23,15.23 0,8.4 -6.83,15.23 -15.23,15.23 -8.4,0 -15.23,-6.83 -15.23,-15.23 z m 36.69,73.88 -29.24,-55.22 h -3.41 l 29.24,55.22 z m -13.23,-82.86 c 0.1,0.7 0.15,1.41 0.15,2.13 0,8.4 -6.83,15.23 -15.23,15.23 -0.72,0 -1.43,-0.05 -2.13,-0.15 2.27,2.48 5.52,3.96 8.98,3.96 6.72,0 12.19,-5.47 12.19,-12.19 0,-3.46 -1.48,-6.71 -3.96,-8.98 z m 17.04,83.55 c 0.16,0.24 0.25,0.53 0.25,0.84 0,0.02 0,0.03 0,0.05 0.03,2.92 2.41,5.28 5.33,5.28 2.92,0 5.13,-2.21 5.31,-4.99 l -28.86,-54.52 c -1.44,2.55 -4.17,4.28 -7.3,4.28 -0.24,0 -0.48,-0.01 -0.71,-0.03 l 25.98,49.08 z m 16.75,-0.68 -29.24,-55.22 h -3.41 l 29.23,55.22 h 3.41 z m -11.18,13.71 c 6.2,0 11.34,-4.66 12.09,-10.66 h -3.85 c -0.72,3.89 -4.14,6.85 -8.24,6.85 -4.1,0 -7.52,-2.96 -8.24,-6.85 h -3.85 c 0.75,6 5.89,10.66 12.09,10.66 z"
           id="path62" />
        <path
           class="h"
           d="m 1043.4,471.05 c 0,0 0,0.05 0,0.08 -0.04,28.49 -23.23,51.65 -51.73,51.65 -28.5,0 -51.47,-22.95 -51.73,-51.26 l -29.89,-43.17 c 0,0 0,0 0,0 -0.16,-0.24 -0.26,-0.53 -0.26,-0.84 0,-28.52 23.21,-51.73 51.73,-51.73 28.52,0 51.47,22.95 51.72,51.26 l 29.81,43.06 c 0.22,0.26 0.35,0.59 0.35,0.95 z m -130.62,-45.03 17.14,-0.06 c 0.81,-16.73 14.67,-30.08 31.6,-30.08 16.93,0 30.67,13.25 31.58,29.89 0,0.09 0.02,0.17 0.02,0.26 h 17.13 c -0.79,-26.2 -22.34,-47.27 -48.73,-47.27 -26.39,0 -47.94,21.07 -48.73,47.27 z m 1.33,2.98 28.08,40.57 h 16.48 L 930.59,429 Z m 47.4,-30.14 c -15.65,0 -28.41,12.61 -28.65,28.2 l 29.88,43.15 c 0.17,0.25 0.26,0.55 0.26,0.85 0,15.8 12.86,28.66 28.66,28.66 15.8,0 28.41,-12.61 28.65,-28.2 l -29.88,-43.15 c -0.17,-0.25 -0.26,-0.55 -0.26,-0.85 0,-15.8 -12.86,-28.66 -28.66,-28.66 z m 77.55,70.71 L 1010.98,429 H 994.5 l 28.08,40.57 z"
           id="path64" />
        <path
           class="h"
           d="m 1171.95,376.6 c 0.28,0.45 0.3,1.01 0.06,1.48 l -8.57,17.14 c -0.26,0.52 -0.79,0.84 -1.36,0.84 h -105.47 l -2.72,3.81 h 99.62 c 0.53,0 1.02,0.27 1.3,0.72 0.28,0.45 0.3,1.01 0.07,1.48 l -2.33,4.65 h 2.68 c 0.53,0 1.02,0.27 1.3,0.72 0.28,0.45 0.3,1.01 0.07,1.48 l -5.14,10.28 c -0.26,0.52 -0.79,0.84 -1.36,0.84 h -81.48 l -7.61,10.66 h 82.24 c 0.53,0 1.02,0.27 1.3,0.72 0.28,0.45 0.3,1.01 0.07,1.48 l -5.14,10.28 c -0.26,0.52 -0.79,0.84 -1.36,0.84 h -57.48 l -7.62,10.66 h 58.25 c 0.53,0 1.02,0.27 1.3,0.72 0.28,0.45 0.3,1.01 0.07,1.48 l -5.14,10.28 c -0.26,0.52 -0.79,0.84 -1.36,0.84 h -33.49 l -7.62,10.66 h 34.25 c 0.55,0 1.06,0.29 1.33,0.77 0.27,0.48 0.26,1.06 -0.02,1.53 l -10.28,17.14 c 0,0 -0.02,0.04 -0.04,0.06 -0.01,0.01 -0.02,0.03 -0.03,0.05 l -17.14,23.99 c 0,0 -0.02,0.02 -0.03,0.03 -0.02,0.02 -0.04,0.04 -0.05,0.06 -0.02,0.03 -0.05,0.05 -0.07,0.08 -0.02,0.02 -0.04,0.04 -0.06,0.06 -0.03,0.03 -0.05,0.05 -0.08,0.07 -0.02,0.02 -0.04,0.03 -0.06,0.05 -0.03,0.02 -0.06,0.04 -0.09,0.06 -0.02,0.02 -0.05,0.03 -0.07,0.04 -0.03,0.02 -0.06,0.03 -0.1,0.05 -0.02,0.01 -0.05,0.02 -0.07,0.03 -0.04,0.01 -0.07,0.03 -0.11,0.04 -0.02,0 -0.05,0.01 -0.07,0.02 -0.04,0.01 -0.08,0.02 -0.12,0.03 -0.02,0 -0.04,0 -0.06,0.01 -0.06,0 -0.13,0.01 -0.19,0.01 -0.02,0 -0.04,0 -0.06,0 -0.03,0 -0.05,0 -0.07,0 -0.03,0 -0.06,0 -0.09,-0.01 -0.03,0 -0.06,-0.01 -0.1,-0.02 -0.03,0 -0.06,-0.01 -0.09,-0.02 -0.03,-0.01 -0.06,-0.02 -0.1,-0.03 -0.03,0 -0.06,-0.02 -0.08,-0.03 -0.03,-0.01 -0.06,-0.03 -0.09,-0.05 -0.03,-0.01 -0.05,-0.02 -0.08,-0.04 -0.03,-0.02 -0.06,-0.04 -0.09,-0.06 -0.02,-0.02 -0.05,-0.03 -0.07,-0.05 -0.03,-0.02 -0.06,-0.05 -0.09,-0.08 -0.02,-0.02 -0.04,-0.03 -0.06,-0.05 -0.03,-0.03 -0.06,-0.06 -0.09,-0.1 -0.01,-0.02 -0.03,-0.03 -0.04,-0.05 -0.04,-0.05 -0.08,-0.1 -0.11,-0.16 l -10.28,-17.14 c 0,0 -0.01,-0.02 -0.02,-0.03 -0.03,-0.05 -0.06,-0.1 -0.08,-0.16 -0.01,-0.03 -0.02,-0.05 -0.03,-0.08 -0.01,-0.04 -0.03,-0.08 -0.04,-0.11 0,-0.03 -0.01,-0.07 -0.02,-0.1 0,-0.03 -0.01,-0.07 -0.02,-0.11 0,-0.04 0,-0.07 0,-0.11 0,-0.03 0,-0.07 0,-0.1 0,-0.04 0,-0.07 0,-0.11 0,-0.03 0,-0.06 0.01,-0.09 0,-0.04 0.01,-0.08 0.02,-0.11 0,-0.03 0.01,-0.06 0.02,-0.09 0.01,-0.04 0.02,-0.08 0.04,-0.11 0.01,-0.03 0.02,-0.05 0.03,-0.08 0.02,-0.04 0.03,-0.08 0.05,-0.11 0,0 0,-0.01 0,-0.02 0.01,-0.02 0.02,-0.04 0.04,-0.05 0.02,-0.03 0.03,-0.06 0.05,-0.08 l 8.07,-11.3 h -13.69 c -0.58,0 -1.1,-0.33 -1.36,-0.84 l -5.14,-10.28 c -0.25,-0.5 -0.21,-1.11 0.12,-1.57 l 8.07,-11.3 h -13.69 c -0.58,0 -1.1,-0.33 -1.36,-0.84 l -5.14,-10.28 c -0.25,-0.5 -0.2,-1.11 0.12,-1.57 l 8.07,-11.3 h -13.69 c -0.58,0 -1.1,-0.33 -1.36,-0.84 l -5.14,-10.28 c -0.25,-0.51 -0.21,-1.11 0.12,-1.57 l 8.07,-11.3 h -13.69 c -0.58,0 -1.1,-0.33 -1.36,-0.84 l -8.57,-17.14 c -0.11,-0.51 -0.11,-1.11 0.12,-1.57 l 17.14,-23.99 c 0,0 0,0 0.01,0 0.29,-0.39 0.74,-0.63 1.23,-0.63 h 123.39 c 0.53,0 1.02,0.27 1.3,0.72 v 0 z m -117.89,17.8 -7.03,-14.05 -15.14,21.19 7.03,14.05 z m 12,23.99 -3.6,-7.2 -15.14,21.19 3.6,7.2 15.13,-21.19 z m 95.09,-25.38 7.05,-14.09 h -118.46 l 6.4,12.79 0.65,1.3 h 104.37 z m -83.09,49.37 -3.6,-7.2 -15.13,21.19 3.6,7.2 15.14,-21.19 z m 71.09,-25.38 3.62,-7.24 h -87.61 l 3.62,7.24 h 80.38 z m -59.1,49.37 -3.6,-7.2 -15.13,21.19 3.6,7.2 z m 50.72,-32.61 h -63.62 l 3.62,7.24 h 56.39 l 3.62,-7.24 z m -57.41,70.53 8.57,14.29 15.21,-21.29 -8.57,-14.29 z m 5.79,-46.53 3.62,7.23 h 32.39 l 3.62,-7.23 z m 12.22,23.99 7.59,12.65 7.59,-12.65 h -15.19 z"
           id="path66" />
        <path
           class="h"
           d="m 1185.21,406.35 c -8.4,0 -15.23,-6.83 -15.23,-15.23 0,-8.4 6.83,-15.23 15.23,-15.23 8.4,0 15.23,6.83 15.23,15.23 0,8.81 -6.51,15.23 -15.23,15.23 z m 14.34,3.94 c 0.54,0.25 0.89,0.79 0.89,1.39 v 85.69 c 0,0.44 -0.19,0.86 -0.52,1.14 l -27.42,23.99 c -0.28,0.25 -0.64,0.38 -1,0.38 -0.21,0 -0.43,-0.04 -0.63,-0.14 -0.54,-0.25 -0.89,-0.79 -0.89,-1.39 v -85.69 c 0,-0.44 0.19,-0.86 0.52,-1.15 l 27.42,-23.99 c 0.45,-0.39 1.09,-0.49 1.63,-0.24 v 0 z m -26.53,99.76 V 518 l 21.84,-19.11 h -9.08 z m 24.37,-118.94 c 0,-2.53 -0.8,-4.97 -2.21,-6.98 0.07,0.61 0.11,1.22 0.11,1.84 0,8.4 -6.83,15.23 -15.23,15.23 -0.62,0 -1.23,-0.04 -1.84,-0.11 2.02,1.41 4.45,2.21 6.98,2.21 6.72,0 12.19,-5.47 12.19,-12.19 z m -10.66,104.73 h 10.66 v -80.81 l -10.66,9.33 z"
           id="path68" />
        <path
           class="h"
           d="m 907.53,545.88 c 40.53,0 73.5,32.97 73.5,73.5 0,40.53 -32.97,73.5 -73.5,73.5 h -0.19 c -6.67,0 -12.79,-7.87 -17.21,-22.15 -4.25,-13.74 -6.59,-31.97 -6.59,-51.35 0,-19.38 2.34,-37.61 6.59,-51.35 4.42,-14.29 10.53,-22.15 17.21,-22.15 z m -0.19,143.96 c 10.02,0 20.75,-28.31 20.75,-70.46 0,-42.15 -10.73,-70.46 -20.75,-70.46 -10.02,0 -20.76,28.31 -20.76,70.46 0,42.15 10.73,70.46 20.76,70.46 z m 0,-30.17 c 8.78,0 13.52,-20.75 13.52,-40.28 0,-19.53 -4.74,-40.28 -13.52,-40.28 -8.78,0 -13.52,20.75 -13.52,40.28 0,19.53 4.74,40.28 13.52,40.28 z m -7.03,-67.24 c 1.96,-6.34 4.66,-10.28 7.03,-10.28 1.27,0 2.44,1.1 3.32,2.26 -4.06,7 -6.56,20.23 -6.56,34.97 0,14.74 2.5,27.97 6.56,34.97 -0.88,1.16 -2.05,2.26 -3.32,2.26 -2.37,0 -5.06,-3.94 -7.03,-10.28 -2.22,-7.18 -3.45,-16.75 -3.45,-26.96 0,-10.21 1.22,-19.78 3.45,-26.96 v 0 z m 77.67,26.95 c 0,-36.42 -27.78,-66.47 -63.26,-70.09 3.44,3.31 6.57,8.97 9.16,16.71 25.91,11.62 43.43,37.67 43.43,67.09 0,12.38 -3.02,24.28 -8.81,34.94 12.49,-13.02 19.48,-30.24 19.48,-48.65 z m -20.57,-3.43 c 0,-4.83 -3.93,-8.76 -8.76,-8.76 -4.83,0 -8.76,3.93 -8.76,8.76 0,4.83 3.93,8.76 8.76,8.76 4.83,0 8.76,-3.93 8.76,-8.76 z"
           id="path70" />
        <path
           class="h"
           d="m 1111.33,673.1 c 0.31,0.28 0.51,0.68 0.51,1.13 v 17.14 c 0,0.84 -0.68,1.52 -1.52,1.52 h -85.69 c -0.38,0 -0.71,-0.14 -0.98,-0.37 0,0 -0.02,0 -0.02,-0.01 l -27.42,-23.99 c -0.33,-0.29 -0.52,-0.71 -0.52,-1.14 V 547.41 c 0,0 0,-0.01 0,-0.02 0,-0.17 0.03,-0.35 0.09,-0.52 0.22,-0.59 0.79,-0.99 1.43,-0.99 h 65.12 c 0.37,0 0.72,0.13 1,0.38 l 7.75,6.78 c 0.37,0.28 0.62,0.72 0.62,1.22 0,0.03 0,0.05 0,0.07 v 8.69 h 10.23 c 0.37,0 0.72,0.13 1,0.38 l 7.84,6.85 c 0,0 0.01,0.01 0.02,0.02 0.31,0.28 0.5,0.68 0.5,1.12 v 17.14 c 0,0.84 -0.68,1.52 -1.52,1.52 h -46.46 v 3.81 h 25.9 c 0.37,0 0.73,0.13 1,0.38 l 7.74,6.78 c 0,0 0.02,0.03 0.03,0.04 0.35,0.28 0.58,0.7 0.58,1.19 v 8.76 h 10.23 c 0.37,0 0.73,0.13 1,0.38 l 7.83,6.85 c 0,0 0.01,0.01 0.02,0.02 0.31,0.28 0.5,0.68 0.5,1.12 v 17.14 c 0,0.84 -0.68,1.53 -1.52,1.53 h -53.32 v 10.66 h 39.61 c 0.37,0 0.72,0.13 1,0.38 l 7.75,6.78 c 0,0 0.02,0.02 0.03,0.04 0.35,0.28 0.58,0.7 0.58,1.19 v 8.76 h 10.23 c 0.37,0 0.73,0.13 1,0.38 l 7.83,6.86 c 0,0 0.01,0.02 0.02,0.02 v 0 z m -112.61,-6.42 24.37,21.33 V 572.09 l -24.37,-21.33 z m 110.06,9.07 h -67.03 c -0.84,0 -1.52,-0.68 -1.52,-1.52 v -37.71 c 0,-0.84 0.68,-1.52 1.52,-1.52 h 53.32 v -14.09 h -53.32 c -0.84,0 -1.52,-0.68 -1.52,-1.52 v -30.85 c 0,-0.84 0.68,-1.52 1.52,-1.52 h 46.46 v -14.09 h -62.08 v 116.92 h 82.64 v -14.09 z m -40.15,-119.96 h -32.12 l 8.27,7.23 h 23.85 z m 23.91,62.08 -4.35,-3.81 h -43.99 c -0.34,0 -0.66,-0.12 -0.93,-0.32 v 4.13 z m -19.59,-17.14 -4.35,-3.81 h -25.32 v 3.81 h 29.68 z m 2.53,3.05 h -32.21 v 5.93 l 1.5,1.31 h 30.71 z m 11.18,51.8 -4.35,-3.81 h -39.04 v 3.81 z m 2.53,3.05 h -45.92 v 5.92 l 1.5,1.31 h 44.42 z m -45.92,14.09 h 62.97 l -4.35,-3.81 h -57.7 c -0.34,0 -0.66,-0.12 -0.93,-0.32 v 4.13 z"
           id="path72" />
        <path
           class="h"
           d="m 1226.45,690.63 c 0.26,0.47 0.25,1.05 -0.03,1.51 -0.28,0.46 -0.77,0.75 -1.31,0.75 h -42.84 c -0.29,0 -0.56,-0.09 -0.79,-0.23 0,0 -0.01,0 -0.01,0 l -9.67,-6.04 v 4.75 c 0,0.84 -0.68,1.52 -1.52,1.52 h -27.42 c -0.09,0 -0.18,-0.01 -0.27,-0.03 -0.03,0 -0.05,-0.01 -0.08,-0.02 -0.07,-0.01 -0.14,-0.04 -0.21,-0.06 -0.02,0 -0.03,-0.01 -0.05,-0.02 -0.07,-0.03 -0.14,-0.07 -0.2,-0.11 l -27.42,-17.14 c -0.45,-0.28 -0.72,-0.77 -0.72,-1.29 v -78.83 c 0,-0.55 0.3,-1.06 0.79,-1.33 0.23,-0.13 0.48,-0.19 0.73,-0.19 0,0 0,0 0.01,0 h 14.44 l -15.33,-10.95 c -0.4,-0.29 -0.64,-0.75 -0.64,-1.24 V 547.4 c 0,-0.84 0.68,-1.52 1.52,-1.52 h 58.27 c 4.08,0 7.95,1.29 11.2,3.73 l 23.96,17.12 c 0.05,0.04 0.1,0.08 0.15,0.12 4.46,3.41 7.35,8.79 7.35,14.83 0,10.29 -8.37,18.66 -18.66,18.66 h -32.05 l 17.43,10.9 c 0.23,0.14 0.41,0.34 0.53,0.56 v 0 c 0,0 42.84,78.83 42.84,78.83 z m -88.55,-94.78 v -3.11 l -13.07,-9.34 c -0.4,-0.29 -0.64,-0.75 -0.64,-1.24 v -20.57 c 0,-0.57 0.32,-1.09 0.83,-1.35 0.51,-0.26 1.12,-0.22 1.58,0.12 l 11.3,8.07 v -3.11 l -20.95,-14.96 v 30.53 z m -20.94,77.52 24.37,15.23 v -75.24 l -24.37,-15.23 z m 80.74,-110.36 c 0.25,0 0.51,0 0.76,0.02 l -15.35,-10.97 c -2.75,-2.06 -5.99,-3.14 -9.4,-3.14 h -53.52 l 19.73,14.09 z m -63.55,33.89 h -13.39 l 22.54,14.09 h 21.67 l -17.06,-10.66 h -8.47 c -0.33,0 -0.63,-0.11 -0.88,-0.28 v 0 l -4.4,-3.15 z m 3.76,-7.91 v -3.11 l -10.66,-7.62 v 3.11 z m 59.79,8.29 c 8.61,0 15.61,-7 15.61,-15.61 0,-8.61 -7,-15.62 -15.61,-15.62 h -56.75 v 3.81 h 56.9 c 4.78,0 9,3.14 10.77,7.48 0.09,0.12 0.16,0.25 0.21,0.39 0.38,1.09 0.59,2.22 0.65,3.36 0,0.13 0.01,0.26 0.02,0.38 0,0.07 0,0.14 0,0.21 v 0.14 c 0,6.42 -5.23,11.65 -11.65,11.65 h -56.9 v 3.81 z m 0.16,-7 c 4.38,0 8.01,-3.29 8.54,-7.54 -2.16,2.33 -5.24,3.73 -8.54,3.73 h -56.9 v 3.81 z m -29.1,99.54 v -75.79 h -24.37 v 75.79 z m -3.81,-5.34 c 0,0.84 -0.68,1.52 -1.52,1.52 h -13.71 c -0.84,0 -1.52,-0.68 -1.52,-1.52 v -65.12 c 0,-0.84 0.68,-1.52 1.52,-1.52 h 13.71 c 0.84,0 1.52,0.68 1.52,1.52 z m -13.71,-1.52 h 8.51 l -3.81,-3.81 h -4.7 z m 19.86,-71.74 c 0.42,0.27 0.71,0.74 0.71,1.28 v 70.49 l 8.95,5.59 v -75.24 l -20.85,-13.03 h -3.52 v 1.7 l 14.71,9.19 c 0,0 0,0 0.01,0.01 v 0 z m -9.2,69.58 v -59.92 h -3.81 v 56.11 z m 60.66,9.02 -38.76,-71.32 v 71.32 z"
           id="path74" />
      </g>
    </g>
  </g>
</svg>
